<svg width="144" height="23" viewBox="0 0 144 23" fill="none" xmlns="http://www.w3.org/2000/svg">
<path d="M3.33935e-05 21.8182V1.43051e-06H14.8935V4.28267H5.27347V8.7571H13.9453V13.0504H5.27347V21.8182H3.33935e-05ZM21.8981 22.0952C20.8541 22.0952 19.9272 21.9212 19.1176 21.5732C18.315 21.218 17.6794 20.6854 17.2106 19.9751C16.749 19.2578 16.5181 18.3594 16.5181 17.2798C16.5181 16.3707 16.6779 15.6037 16.9975 14.9787C17.3171 14.3537 17.7575 13.8459 18.3186 13.4553C18.8796 13.0646 19.526 12.7699 20.2575 12.571C20.989 12.3651 21.7703 12.2266 22.6012 12.1555C23.5316 12.0703 24.2809 11.9815 24.8491 11.8892C25.4173 11.7898 25.8292 11.6513 26.0849 11.4737C26.3477 11.2891 26.4791 11.0298 26.4791 10.696V10.6428C26.4791 10.0959 26.2909 9.6733 25.9145 9.375C25.538 9.07671 25.0302 8.92756 24.391 8.92756C23.7021 8.92756 23.1481 9.07671 22.7291 9.375C22.31 9.6733 22.0437 10.0852 21.9301 10.6108L17.1254 10.4403C17.2674 9.44602 17.6332 8.55824 18.2227 7.77699C18.8193 6.98864 19.636 6.37074 20.673 5.9233C21.717 5.46875 22.9706 5.24148 24.4336 5.24148C25.4777 5.24148 26.44 5.36577 27.3207 5.61435C28.2014 5.85583 28.9684 6.21094 29.6218 6.67969C30.2752 7.14134 30.7795 7.70952 31.1346 8.38423C31.4968 9.05895 31.6779 9.82955 31.6779 10.696V21.8182H26.7774V19.5384H26.6495C26.3583 20.0923 25.9855 20.5611 25.5309 20.9446C25.0835 21.3281 24.5544 21.6158 23.9436 21.8075C23.3399 21.9993 22.6581 22.0952 21.8981 22.0952ZM23.5068 18.6861C24.0679 18.6861 24.5721 18.5724 25.0196 18.3452C25.4741 18.1179 25.8363 17.8054 26.1062 17.4077C26.3761 17.0028 26.511 16.5341 26.511 16.0014V14.446C26.3619 14.5241 26.1808 14.5952 25.9677 14.6591C25.7618 14.723 25.5345 14.7834 25.2859 14.8402C25.0373 14.897 24.7816 14.9467 24.5189 14.9893C24.2561 15.032 24.0039 15.071 23.7625 15.1065C23.2724 15.1847 22.8534 15.3054 22.5054 15.4688C22.1645 15.6321 21.9017 15.8452 21.717 16.108C21.5395 16.3636 21.4507 16.669 21.4507 17.0241C21.4507 17.5639 21.6424 17.9759 22.026 18.2599C22.4166 18.544 22.9102 18.6861 23.5068 18.6861ZM42.5018 22.1271C40.776 22.1271 39.2951 21.772 38.0593 21.0618C36.8306 20.3516 35.886 19.3643 35.2255 18.1001C34.565 16.8288 34.2348 15.3587 34.2348 13.6896C34.2348 12.0135 34.565 10.5433 35.2255 9.27912C35.8931 8.00781 36.8413 7.01705 38.07 6.30682C39.3058 5.59659 40.7795 5.24148 42.4912 5.24148C44.0039 5.24148 45.3214 5.51492 46.4436 6.06179C47.5728 6.60867 48.4535 7.38281 49.0856 8.38423C49.7248 9.37855 50.0622 10.5469 50.0977 11.8892H45.2291C45.1296 11.0511 44.8456 10.3942 44.3768 9.91833C43.9152 9.44247 43.3115 9.20455 42.5657 9.20455C41.962 9.20455 41.4329 9.375 40.9784 9.71591C40.5238 10.0497 40.1687 10.5469 39.913 11.2074C39.6645 11.8608 39.5402 12.6705 39.5402 13.6364C39.5402 14.6023 39.6645 15.419 39.913 16.0866C40.1687 16.7472 40.5238 17.2479 40.9784 17.5888C41.4329 17.9226 41.962 18.0895 42.5657 18.0895C43.0487 18.0895 43.4748 17.9865 43.8441 17.7805C44.2206 17.5746 44.5295 17.2727 44.771 16.875C45.0125 16.4702 45.1652 15.9801 45.2291 15.4048H50.0977C50.048 16.7543 49.7106 17.9332 49.0856 18.9418C48.4677 19.9503 47.5977 20.7351 46.4755 21.2962C45.3605 21.8501 44.0359 22.1271 42.5018 22.1271ZM60.4129 22.1271C58.7012 22.1271 57.2239 21.7898 55.981 21.1151C54.7452 20.4332 53.7935 19.4638 53.1259 18.2067C52.4654 16.9425 52.1352 15.4403 52.1352 13.7003C52.1352 12.0099 52.469 10.5327 53.1366 9.26847C53.8042 7.99716 54.7452 7.00994 55.9597 6.30682C57.1742 5.59659 58.6053 5.24148 60.2531 5.24148C61.4178 5.24148 62.4832 5.42259 63.4491 5.7848C64.415 6.14702 65.2495 6.68324 65.9526 7.39347C66.6558 8.1037 67.2026 8.98083 67.5933 10.0249C67.9839 11.0618 68.1792 12.2514 68.1792 13.5938V14.8935H53.9569V11.8679H63.3319C63.3248 11.3139 63.1934 10.8203 62.9377 10.3871C62.682 9.95384 62.3305 9.61648 61.883 9.375C61.4427 9.12642 60.9349 9.00213 60.3596 9.00213C59.7772 9.00213 59.2552 9.13352 58.7935 9.39631C58.3319 9.65199 57.9661 10.0036 57.6962 10.451C57.4263 10.8913 57.2843 11.392 57.2701 11.9531V15.032C57.2701 15.6996 57.4015 16.2855 57.6643 16.7898C57.9271 17.2869 58.2999 17.674 58.7829 17.951C59.2658 18.228 59.8411 18.3665 60.5087 18.3665C60.9704 18.3665 61.3894 18.3026 61.7658 18.1747C62.1423 18.0469 62.4654 17.8587 62.7353 17.6101C63.0052 17.3615 63.2076 17.0561 63.3425 16.6939L68.1259 16.8324C67.9271 17.9048 67.4903 18.8388 66.8156 19.6342C66.1479 20.4226 65.2708 21.0369 64.1842 21.4773C63.0975 21.9105 61.8404 22.1271 60.4129 22.1271ZM70.8399 21.8182V1.43051e-06H76.0494V8.25639H76.1559C76.369 7.75923 76.6708 7.27983 77.0615 6.81818C77.4592 6.35654 77.9635 5.98012 78.5743 5.68892C79.1921 5.39063 79.9308 5.24148 80.7902 5.24148C81.9265 5.24148 82.9883 5.53977 83.9755 6.13636C84.9698 6.73296 85.7724 7.6527 86.3832 8.8956C86.994 10.1385 87.2994 11.7223 87.2994 13.647C87.2994 15.5007 87.0046 17.0526 86.4152 18.3026C85.8328 19.5526 85.0444 20.4901 84.0501 21.1151C83.0629 21.7401 81.9656 22.0526 80.7582 22.0526C79.9343 22.0526 79.2206 21.9176 78.6169 21.6477C78.0132 21.3778 77.5054 21.0227 77.0934 20.5824C76.6886 20.142 76.3761 19.6697 76.1559 19.1655H75.9961V21.8182H70.8399ZM75.9429 13.6364C75.9429 14.517 76.06 15.2841 76.2944 15.9375C76.5359 16.5909 76.8804 17.0987 77.3278 17.4609C77.7823 17.8161 78.3257 17.9936 78.9578 17.9936C79.597 17.9936 80.1403 17.8161 80.5877 17.4609C81.0352 17.0987 81.3725 16.5909 81.5998 15.9375C81.8342 15.2841 81.9514 14.517 81.9514 13.6364C81.9514 12.7557 81.8342 11.9922 81.5998 11.3459C81.3725 10.6996 81.0352 10.1989 80.5877 9.84375C80.1474 9.48864 79.6041 9.31108 78.9578 9.31108C78.3186 9.31108 77.7752 9.48509 77.3278 9.8331C76.8804 10.1811 76.5359 10.6783 76.2944 11.3246C76.06 11.9709 75.9429 12.7415 75.9429 13.6364ZM97.6678 22.1271C95.9491 22.1271 94.4718 21.7756 93.236 21.0724C92.0073 20.3622 91.0592 19.375 90.3915 18.1108C89.731 16.8395 89.4008 15.3658 89.4008 13.6896C89.4008 12.0064 89.731 10.5327 90.3915 9.26847C91.0592 7.99716 92.0073 7.00994 93.236 6.30682C94.4718 5.59659 95.9491 5.24148 97.6678 5.24148C99.3866 5.24148 100.86 5.59659 102.089 6.30682C103.325 7.00994 104.273 7.99716 104.933 9.26847C105.601 10.5327 105.935 12.0064 105.935 13.6896C105.935 15.3658 105.601 16.8395 104.933 18.1108C104.273 19.375 103.325 20.3622 102.089 21.0724C100.86 21.7756 99.3866 22.1271 97.6678 22.1271ZM97.6998 18.196C98.3248 18.196 98.8539 18.0043 99.2871 17.6207C99.7204 17.2372 100.051 16.7045 100.278 16.0227C100.512 15.3409 100.629 14.5526 100.629 13.6577C100.629 12.7486 100.512 11.9531 100.278 11.2713C100.051 10.5895 99.7204 10.0568 99.2871 9.6733C98.8539 9.28977 98.3248 9.09801 97.6998 9.09801C97.0535 9.09801 96.5066 9.28977 96.0592 9.6733C95.6188 10.0568 95.2815 10.5895 95.0471 11.2713C94.8198 11.9531 94.7062 12.7486 94.7062 13.6577C94.7062 14.5526 94.8198 15.3409 95.0471 16.0227C95.2815 16.7045 95.6188 17.2372 96.0592 17.6207C96.5066 18.0043 97.0535 18.196 97.6998 18.196ZM116.242 22.1271C114.523 22.1271 113.046 21.7756 111.81 21.0724C110.582 20.3622 109.633 19.375 108.966 18.1108C108.305 16.8395 107.975 15.3658 107.975 13.6896C107.975 12.0064 108.305 10.5327 108.966 9.26847C109.633 7.99716 110.582 7.00994 111.81 6.30682C113.046 5.59659 114.523 5.24148 116.242 5.24148C117.961 5.24148 119.435 5.59659 120.663 6.30682C121.899 7.00994 122.847 7.99716 123.508 9.26847C124.175 10.5327 124.509 12.0064 124.509 13.6896C124.509 15.3658 124.175 16.8395 123.508 18.1108C122.847 19.375 121.899 20.3622 120.663 21.0724C119.435 21.7756 117.961 22.1271 116.242 22.1271ZM116.274 18.196C116.899 18.196 117.428 18.0043 117.861 17.6207C118.295 17.2372 118.625 16.7045 118.852 16.0227C119.087 15.3409 119.204 14.5526 119.204 13.6577C119.204 12.7486 119.087 11.9531 118.852 11.2713C118.625 10.5895 118.295 10.0568 117.861 9.6733C117.428 9.28977 116.899 9.09801 116.274 9.09801C115.628 9.09801 115.081 9.28977 114.633 9.6733C114.193 10.0568 113.856 10.5895 113.621 11.2713C113.394 11.9531 113.28 12.7486 113.28 13.6577C113.28 14.5526 113.394 15.3409 113.621 16.0227C113.856 16.7045 114.193 17.2372 114.633 17.6207C115.081 18.0043 115.628 18.196 116.274 18.196ZM131.876 17.5249L131.897 11.3139H132.622L137.224 5.45455H143.126L136.286 13.8494H134.912L131.876 17.5249ZM127.178 21.8182V1.43051e-06H132.387V21.8182H127.178ZM137.341 21.8182L133.058 15.0213L136.489 11.3246L143.36 21.8182H137.341Z" fill="#1877F2"/>
</svg>
