<svg width="43" height="148" viewBox="0 0 43 148" fill="none" xmlns="http://www.w3.org/2000/svg">
<path d="M27.3047 23.4776L0 147.5C-1.935e-05 146.529 28.0946 17.8834 29.073 17.8773H32.6658C33.6486 17.8773 34.4453 18.6683 34.4453 19.6441V23.4665C34.4453 24.3091 35.13 24.9939 35.9787 25H38.4298C39.5745 25.0029 40.6734 24.5535 41.484 23.7509C42.2945 22.9483 42.75 21.8584 42.75 20.7219V9.83231C42.75 8.91423 42.3401 8.04339 41.6308 7.45438L33.3037 0.842835C31.8481 -0.313597 29.7692 -0.27624 28.3567 0.93173L20.2088 7.45438C19.4659 8.02603 19.0219 8.89945 19 9.83231V20.7108C19 23.0796 20.9342 25 23.3202 25H25.7154C26.124 25.0029 26.5169 24.8438 26.8068 24.558C27.0968 24.2722 27.2599 23.8833 27.2599 23.4776H27.3047Z" fill="#898F9C"/>
</svg>
